<svg width="3000" height="3000" viewBox="0 0 3000 3000" fill="none" xmlns="http://www.w3.org/2000/svg">
<mask id="mask0_14_5" style="mask-type:alpha" maskUnits="userSpaceOnUse" x="0" y="0" width="3000" height="3000">
<circle cx="1500" cy="1500" r="1500" fill="#D9D9D9"/>
</mask>
<g mask="url(#mask0_14_5)">
<path d="M2954 1500C2954 2303.02 2303.02 2954 1500 2954C696.978 2954 46 2303.02 46 1500C46 696.978 696.978 46 1500 46C2303.02 46 2954 696.978 2954 1500Z" fill="#FF4B32"/>
<path d="M-2352.83 1480.38L-163.624 -708.826C-150.346 -722.104 -128.819 -722.104 -115.541 -708.826L1959.14 1365.86C1972.42 1379.14 1972.42 1400.66 1959.14 1413.94L-230.06 3603.14C-243.337 3616.42 -264.865 3616.42 -278.143 3603.14L-2352.83 1528.46C-2366.1 1515.18 -2366.1 1493.65 -2352.83 1480.38Z" fill="#AFAFB1" stroke="white" stroke-width="300"/>
<path fill-rule="evenodd" clip-rule="evenodd" d="M1500 3000C2328.43 3000 3000 2328.43 3000 1500C3000 671.573 2328.43 0 1500 0C671.573 0 0 671.573 0 1500C0 2328.43 671.573 3000 1500 3000ZM1500.5 2699C2156.34 2699 2688 2167.34 2688 1511.5C2688 855.662 2156.34 324 1500.5 324C844.662 324 313 855.662 313 1511.5C313 2167.34 844.662 2699 1500.5 2699Z" fill="white"/>
</g>
</svg>
