<svg width="300" height="300" viewBox="0 0 300 300" fill="none" xmlns="http://www.w3.org/2000/svg">
<mask id="mask0_9_17" style="mask-type:alpha" maskUnits="userSpaceOnUse" x="0" y="0" width="300" height="300">
<circle cx="150" cy="150" r="150" fill="#00372D"/>
</mask>
<g mask="url(#mask0_9_17)">
<circle cx="150" cy="150" r="150" fill="#00FBD4"/>
<circle cx="150.5" cy="147.5" r="132.5" fill="#091523"/>
<path d="M127 183L115 207H184L172 183H127Z" fill="white"/>
<rect x="249" y="205" width="36" height="61" fill="#091523"/>
<rect x="249" y="205" width="36" height="61" fill="#091523"/>
<rect x="24" y="204" width="36" height="61" fill="#091523"/>
<rect x="24" y="204" width="36" height="61" fill="#091523"/>
<rect x="139.575" y="6.79584" width="49.1399" height="291.368" transform="rotate(29.5223 139.575 6.79584)" fill="white"/>
<rect x="139.575" y="6.79584" width="49.1399" height="291.368" transform="rotate(29.5223 139.575 6.79584)" fill="white"/>
<rect x="125" y="46.0698" width="49.1399" height="291.368" transform="rotate(-29.3289 125 46.0698)" fill="white"/>
<rect x="125" y="46.0698" width="49.1399" height="291.368" transform="rotate(-29.3289 125 46.0698)" fill="white"/>
<path d="M277.63 236.81C272.78 227.47 268.41 219.22 264.18 210.91C246.9 176.89 229.69 142.82 212.4 108.81C201.6 87.57 190.67 66.4 179.82 45.19C174.9 35.58 167.76 28.84 156.78 26.75C143.01 24.13 130.27 29.66 123.59 42.12C114.07 59.89 104.92 77.87 95.81 95.85C78.09 130.82 60.51 165.87 42.87 200.88C36.94 212.66 31.02 224.45 24.87 236.69C24.03 235.69 23.4099 235.14 23.0399 234.46C18.6399 226.22 14.2299 217.98 9.96994 209.66C9.42994 208.62 9.24997 206.88 9.74997 205.89C19.17 187.2 28.75 168.59 38.23 149.93C46.06 134.51 53.75 119.01 61.59 103.59C66.55 93.84 71.72 84.21 76.71 74.47C81.81 64.51 86.63 54.41 91.89 44.53C97.31 34.35 101.68 23.5 110.52 15.44C134.3 -6.25001 172.75 -5.00002 193.74 18.74C198.37 23.98 201.77 30.47 205.01 36.76C229.19 83.68 253.17 130.71 277.27 177.67C282 186.89 287.03 195.95 291.76 205.17C292.38 206.37 292.57 208.38 292 209.52C287.49 218.41 282.74 227.17 277.63 236.81Z" fill="white"/>
<path d="M237.661 274.639C229.861 258.929 222.491 243.959 215.021 229.039C196.041 191.149 177.021 153.279 158.001 115.409C156.251 111.919 154.441 107.969 149.911 108.039C145.591 108.109 143.901 111.949 142.201 115.349C126.531 146.759 110.851 178.149 95.1807 209.559C84.6707 230.629 74.1807 251.719 63.6707 272.799C63.5107 273.119 63.2407 273.379 62.5807 274.259C56.1107 268.699 49.6407 263.279 43.4207 257.589C42.7207 256.949 42.9807 254.549 43.5707 253.349C49.8607 240.499 56.3406 227.749 62.7106 214.939C72.0706 196.109 81.3507 177.239 90.7407 158.429C97.8507 144.179 105.071 129.989 112.281 115.789C116.331 107.819 120.151 99.7086 124.621 91.9786C136.621 71.2086 165.121 71.9286 176.801 94.8286C191.031 122.729 205.221 150.649 219.381 178.589C231.901 203.289 244.321 228.049 256.911 252.719C258.231 255.309 258.491 256.879 255.931 258.929C249.821 263.839 244.021 269.129 237.671 274.629L237.661 274.639Z" fill="white"/>
</g>
</svg>
