<svg width="3000" height="3000" viewBox="0 0 3000 3000" fill="none" xmlns="http://www.w3.org/2000/svg">
<g clip-path="url(#clip0_14_2)">
<path fill-rule="evenodd" clip-rule="evenodd" d="M921.172 115.757C792.719 169.533 673.336 240.668 565.958 326.229C221.054 601.054 0 1024.71 0 1500C0 1919.18 171.943 2298.2 449.147 2570.38C545.324 2664.81 654.171 2746.38 772.903 2812.31C988.281 2931.9 1236.19 3000 1500 3000C2328.43 3000 3000 2328.43 3000 1500C3000 736.294 2429.26 105.891 1691.05 12.0513C1628.48 4.09879 1564.72 0 1500 0C1462.87 0 1426.06 1.34871 1389.61 4.00005C1224.63 16.0005 1067.05 54.6849 921.172 115.757ZM444 1500C444 1796.57 566.257 2064.59 763.123 2256.4L1629.63 1389.9L882.787 643.058C616.997 834.829 444 1147.21 444 1500ZM2195.31 1389.9L1105.41 2479.81C1227.31 2528.95 1360.5 2556 1500 2556C2083.21 2556 2556 2083.21 2556 1500C2556 916.787 2083.21 444 1500 444C1422.33 444 1346.61 452.386 1273.72 468.301L2195.31 1389.9Z" fill="white"/>
</g>
<defs>
<clipPath id="clip0_14_2">
<rect width="3000" height="3000" fill="white"/>
</clipPath>
</defs>
</svg>
